# xmcd CD database file
#
# Track frame offsets:
#	150
#	27262
#	55213
#	82729
#	100460
#	134638
#	152742
#	174770
#	205817
#	227900
#	249147
#	266147
#	290719
#
# Disc length: 4177 seconds
#
# Revision: 0
# Processed by: cddbd v1.5.1PL0 Copyright (c) Steve Scherf et al.
# Submitted via: CDex 1.50
#
DISCID=b0104f0d
DTITLE=宮本浩次 - Haru no Kioku
DYEAR=2004
DGENRE=JPop
TTITLE0=宇宙の法則
TTITLE1=キレイになりたい
TTITLE2=Sunny days
TTITLE3=(introduction)
TTITLE4=いつも二人で
TTITLE5=雨の丘にて
TTITLE6=I know
TTITLE7=釣れたっスカ？
TTITLE8=(Take my)Blue Train
TTITLE9=だいたい彼女は・・・
TTITLE10=マダガスカルの虜
TTITLE11=タイトでキュートなヒップがシュールなジョークとムードでテレフォンナンバー
TTITLE12=午後のパレード
EXTD=YEAR: 2004
EXTT0=
EXTT1=
EXTT2=
EXTT3=
EXTT4=
EXTT5=
EXTT6=
EXTT7=
EXTT8=
EXTT9=
EXTT10=
EXTT11=
EXTT12=
PLAYORDER=
